<?xml version="1.0" encoding="UTF-8"?>
<svg id="Layer_2" data-name="Layer 2" xmlns="http://www.w3.org/2000/svg" viewBox="0 0 42.15 42.15">
  <defs>
    <style>
      .cls-1 {
        fill: #f6f6f6;
      }
    </style>
  </defs>
  <g id="Layer_1-2" data-name="Layer 1">
    <path class="cls-1" d="M21.05,28.45l9.6-9.55-3.1-3-6.5,6.5-6.5-6.5-3.1,3,9.6,9.55Zm0,13.7c-2.9,0-5.63-.54-8.2-1.62-2.57-1.08-4.81-2.58-6.72-4.5-1.92-1.92-3.42-4.16-4.5-6.72-1.08-2.57-1.62-5.3-1.62-8.2s.54-5.63,1.62-8.2,2.58-4.81,4.5-6.72c1.92-1.92,4.16-3.43,6.73-4.53C15.42,.55,18.13,0,21,0c2.93,0,5.69,.55,8.27,1.65,2.58,1.1,4.83,2.61,6.72,4.53,1.9,1.92,3.4,4.16,4.5,6.73,1.1,2.57,1.65,5.32,1.65,8.25,0,2.87-.55,5.58-1.65,8.15-1.1,2.57-2.61,4.81-4.53,6.72-1.92,1.92-4.16,3.42-6.72,4.5-2.57,1.08-5.3,1.62-8.2,1.62Z"/>
  </g>
</svg>