<svg xmlns="http://www.w3.org/2000/svg" width="51.676" height="51.676"><defs><clippath id="c"><path data-name="Rectangle 9" fill="none" d="M0 0h51.676v51.676H0z"/></clippath></defs><g data-name="Group 19" opacity=".8"><g data-name="Group 18" clip-path="url(#a)" fill-rule="evenodd"><path data-name="Path 25" d="M51.676 25.838A25.838 25.838 0 1 1 25.838-.001a25.838 25.838 0 0 1 25.838 25.839" fill="#fff"/><path data-name="Path 26" d="M26.124 21.246a6.73 6.73 0 0 1 11.542-5.856 16.99 16.99 0 0 0 3.989-1.782 7.341 7.341 0 0 1-2.971 3.734 12.649 12.649 0 0 0 3.649-1.018 7.094 7.094 0 0 1-3.14 3.14c1.1 15.362-15.447 24.7-28.856 17.059 0 0 6.62.34 9.421-2.886 0 0-4.074.339-6.111-4.583a4.094 4.094 0 0 0 3.055-.17s-4.753-.764-5.177-6.45a4.182 4.182 0 0 0 3.225.764s-5.262-3.14-2.292-8.826c0 0 5.6 7.129 13.664 6.874" fill="#354860"/></g></g></svg>
