<svg xmlns="http://www.w3.org/2000/svg" width="51.676" height="51.676"><defs><clippath id="b"><path data-name="Rectangle 8" fill="none" d="M0 0h51.676v51.676H0z"/></clippath></defs><g data-name="Group 17" opacity=".8"><g data-name="Group 16" clip-path="url(#a)" fill-rule="evenodd"><path data-name="Path 23" d="M51.676 25.838A25.838 25.838 0 1 1 25.838-.001a25.838 25.838 0 0 1 25.838 25.839" fill="#fff"/><path data-name="Path 24" d="M18.238 9.379h15.2a8.94 8.94 0 0 1 8.9 8.9v15.12a8.94 8.94 0 0 1-8.9 8.9h-15.2a8.941 8.941 0 0 1-8.9-8.9V18.278a8.941 8.941 0 0 1 8.9-8.9m16.459 5.749a1.89 1.89 0 1 1 0 3.78 1.89 1.89 0 1 1 0-3.78m-8.9 1.732h.079a8.978 8.978 0 1 1 0 17.955h-.079a8.978 8.978 0 0 1 0-17.955m0 3.071h.079a5.946 5.946 0 0 1 0 11.891h-.079a5.946 5.946 0 0 1 0-11.891m-7.481-7.718h15.042a6.151 6.151 0 0 1 6.143 6.143v14.963a6.151 6.151 0 0 1-6.143 6.143H18.317a6.151 6.151 0 0 1-6.143-6.143V18.361a6.151 6.151 0 0 1 6.143-6.143" fill="#354860"/></g></g></svg>
