<svg xmlns="http://www.w3.org/2000/svg" width="51.676" height="51.676"><defs><clippath id="a"><path data-name="Rectangle 10" fill="none" d="M0 0h51.676v51.676H0z"/></clippath></defs><g data-name="Group 21" opacity=".8"><g data-name="Group 20" clip-path="url(#a)" fill-rule="evenodd"><path data-name="Path 27" d="M51.676 25.838A25.838 25.838 0 1 1 25.838-.001a25.838 25.838 0 0 1 25.838 25.839" fill="#fff"/><path data-name="Path 28" d="M11.468 20.651h5.819v19.542h-5.819Zm2.874-9.913a3.52 3.52 0 0 1 0 7.04 3.521 3.521 0 0 1 0-7.04m6.393 9.913h5.747v2.73a6.65 6.65 0 0 1 5.531-2.945h1.581a6.638 6.638 0 0 1 6.609 6.609v13.148h-5.747v-10.56a3.82 3.82 0 0 0-3.807-3.951 4.128 4.128 0 0 0-4.167 3.951v10.56h-5.747Z" fill="#354860"/></g></g></svg>
