<?xml version="1.0" encoding="UTF-8"?>
<svg id="Layer_1" data-name="Layer 1" xmlns="http://www.w3.org/2000/svg" viewBox="0 0 235.4 96.2">
  <defs>
    <style>
      .cls-1 {
        fill: #fff;
      }
    </style>
  </defs>
  <g>
    <path class="cls-1" d="m28,73.3l-6,17.4h-1.7l-2.5-7.8-2.4-7.4-5,15.2h-1.8l-6-17.4h1.6l3.1,9.3,2.1,6.2,5.1-15.5h1.6l5,15.6,5.3-15.6s1.6,0,1.6,0Z"/>
    <path class="cls-1" d="m69,89.3v1.4h-12.4v-17.4h12.1v1.4h-10.7v6.5h10.2v1.4h-10.2v6.7h11Z"/>
    <path class="cls-1" d="m110.2,86.5h-10.4l-1.9,4.2h-1.6l7.8-17.4h1.7l7.8,17.4h-1.6l-1.8-4.2Zm-9.8-1.4h9.1l-4.5-10.2-4.6,10.2Z"/>
    <path class="cls-1" d="m142,73.3h1.5v16h9.8v1.4h-11.3v-17.4Z"/>
    <path class="cls-1" d="m190.8,74.7h-6.2v16h-1.5v-16h-6.2v-1.4h13.9v1.4Z"/>
    <path class="cls-1" d="m232.9,73.3v17.4h-1.5v-8.2h-11v8.2h-1.4v-17.4h1.5v7.8h11v-7.8h1.4Z"/>
  </g>
  <g>
    <path class="cls-1" d="m20.8,22.1c-4.2.6-9.9,5-9.9,14.1,0,10.4,5.4,13.7,10.7,13.7,4.3,0,8.2-1.9,9.9-4.3l.4.3c-1.3,4.6-5.5,11.5-15.3,11.5-10.2-.1-15.6-7.7-15.6-16.8,0-11.2,10.4-18.5,19.8-19.1v.6Zm5.6.1c2.5,0,4.7,2.1,4.7,4.7s-2.1,4.7-4.7,4.7-4.7-2.1-4.7-4.7c0-2.6,2.1-4.7,4.7-4.7Z"/>
    <path class="cls-1" d="m38.1,11.5c0-2.6-.7-4.1-3.8-5.8v-.4l13.9-4.3.2.2c-.1,3.2-.2,7.8-.2,11v37.5c0,4.7,1.2,6,4.6,6.6v.6h-19v-.6c3.6-.6,4.5-1.7,4.5-6.6V11.5h-.2Z"/>
    <path class="cls-1" d="m72.9,51.9v.3c-.7,2-4,5.1-8.5,5.1-5.6,0-8.5-3.8-8.5-8.3,0-4,2.1-6.6,3.2-7,1.6-.6,9.1-2.8,13-3.7v.6c-1.9.7-4.2,1.7-5.3,3-.8,1.2-1.3,2.9-1.3,4.7,0,4.2,1.3,6,4.3,6,1.2,0,2.6-.4,3.1-.7Zm-10.5-25.2c2.3,0,4.2,1.9,4.2,4.2s-1.9,4.3-4.2,4.3-4.2-1.9-4.2-4.3c0-2.3,1.8-4.2,4.2-4.2Zm.9-1.8c2.4-1.7,6.8-3.5,10.1-3.5,7.3,0,10.7,3.6,10.7,10.1v17.8c0,2.5.9,3.5,3,3.5.8,0,1.7-.2,2.3-.6v.4c-.9,2.2-3.6,4.7-8,4.7-4.7,0-7.2-2.8-7.2-8.1v-17.2c0-4.9-4-6.9-10.9-6.9,0,0,0-.2,0-.2Z"/>
    <path class="cls-1" d="m105.5,49.7c0,4.7,1.9,6,5.3,6.5v.6h-19.8v-.6c3.6-.6,4.6-1.7,4.6-6.6v-17.8c0-2.6-.8-4.1-3.8-5.7v-.5l13.5-4.3.2.2s0,28.2,0,28.2Zm5.3-21.3c0-1.2.5-2.5,1-3.1-.1-.2-.4-.2-.6-.2-1.1,0-2.7.8-3.9,2.9v-.3c.9-3.2,4.2-6.3,7.7-6.3,4,0,6.2,2.4,6.2,6s-2.3,5.7-5.5,5.7c-2.8,0-4.9-1.9-4.9-4.7Z"/>
    <path class="cls-1" d="m128,32.1c0-2.8-1-4-2.1-4.8-.5-.4-1.4-1-1.9-1.3v-.4l14-4.3.2.2c-.1,3.2-.2,7.8-.2,11v17.1c0,4.7,1.3,6,4.8,6.6v.6h-19.3v-.6c3.6-.6,4.6-1.7,4.6-6.6v-17.5h-.1Zm4.8-27.6c3.1,0,5.7,2.4,5.7,5.5s-2.6,5.5-5.7,5.5-5.6-2.4-5.6-5.5c0-3.1,2.5-5.5,5.6-5.5Z"/>
    <path class="cls-1" d="m148.8,47.9v-21.7h-4.2v-1.1l13.3-12,.9.4v8.8h11.2l-.8,4h-10.4v18.7c0,4.3,1.9,6.6,6.3,6.6,2.1,0,4.4-.4,5.5-.8v.4c-1.6,2.6-6.6,6.2-12.3,6.2-5.9-.1-9.5-2.6-9.5-9.5Z"/>
    <path class="cls-1" d="m190.3,51.9v.3c-.7,2-4,5.1-8.5,5.1-5.6,0-8.5-3.8-8.5-8.3,0-4,2.1-6.6,3.2-7,1.6-.6,9.1-2.8,13-3.7v.6c-1.9.7-4.2,1.7-5.3,3-.8,1.2-1.3,2.9-1.3,4.7,0,4.2,1.3,6,4.3,6,1.2,0,2.6-.4,3.1-.7Zm-10.6-25.2c2.3,0,4.2,1.9,4.2,4.2s-1.9,4.3-4.2,4.3-4.2-1.9-4.2-4.3c.1-2.3,1.9-4.2,4.2-4.2Zm1-1.8c2.4-1.7,6.8-3.5,10.1-3.5,7.3,0,10.7,3.6,10.7,10.1v17.8c0,2.5.9,3.5,3,3.5.8,0,1.7-.2,2.3-.6v.4c-.9,2.2-3.6,4.7-8,4.7-4.7,0-7.2-2.8-7.2-8.1v-17.2c0-4.9-4-6.9-10.9-6.9v-.2h0Z"/>
    <path class="cls-1" d="m219.8,57.3c-3.1,0-7.9-1.1-9.8-2l-.5-10.7h.6c1.3,5,5.9,11.1,9.7,12.2v.5Zm1.4-35.3c-1.5.3-3.5,2-3.5,4.7,0,4,3.7,5.6,7.8,7.8,5.1,2.9,9.7,5.8,9.7,11.1,0,7.4-5.5,11.3-12.8,11.7v-.5c2.8-.5,4.9-2.2,4.9-5.7,0-3.7-3.8-5.5-8.1-7.7-4.4-2.4-9.2-5.1-9.2-11.4,0-5.8,4.6-9.9,11.1-10.6v.6h.1Zm2.6-.6c3.6,0,7.9.9,9.2,1.5l.5,9.6h-.6c-1.5-5-5.4-10-9.1-10.6v-.5h0Z"/>
  </g>
</svg>